<svg width="60" height="60" viewBox="0 0 60 60" fill="none" xmlns="http://www.w3.org/2000/svg">
<path d="M20.1129 7.71801C20.4347 6.90655 20.7323 6.01448 21.0039 5.04296L21.0061 5.03515L21.0062 5.03517C21.0786 4.79152 21.2438 4.58609 21.4663 4.46317L21.7081 4.9008L21.4663 4.46317C21.6888 4.34024 21.9506 4.30968 22.1954 4.37806C22.4402 4.44644 22.6483 4.60829 22.7749 4.82871C22.9015 5.04913 22.9363 5.31046 22.872 5.55635L22.8699 5.56438L22.8698 5.56436C22.0629 8.45117 21.0091 10.7775 19.719 12.4546L19.7146 12.4603L19.7146 12.4603C19.6473 12.5452 19.5664 12.618 19.4753 12.6759C19.3537 19.477 20.126 34.163 21.8095 56.7851C21.8485 56.7989 21.9011 56.8143 21.9707 56.8293C22.1845 56.8752 22.4913 56.9027 22.9039 56.9027C23.7267 56.9027 24.8919 56.794 26.4112 56.5698L26.4322 56.5667L26.4534 56.5654L26.4535 56.5654L26.4536 56.5654L26.4541 56.5654L26.4561 56.5652L26.4637 56.5648L26.494 56.5629L26.6146 56.5558C26.7216 56.5495 26.8821 56.5402 27.0963 56.5282C27.4482 56.5085 27.9452 56.4816 28.5884 56.4486C29.1486 49.1157 29.2742 42.6251 28.9194 36.939C28.5839 33.986 28.9241 28.8125 29.9292 21.4998L30.9245 21.5737C30.8042 31.9693 31.3451 43.6225 32.5465 56.52L38.2734 56.6101C38.8379 52.6503 38.9728 47.2592 38.6551 40.4067L38.6526 40.3541L38.6612 40.3023C39.6949 34.0263 40.3181 24.9843 40.5459 13.1815L40.238 12.5939C40.1398 12.5766 40.0446 12.5442 39.9558 12.4975C39.8172 12.4247 39.6983 12.3192 39.6094 12.1903L20.1129 7.71801ZM20.1129 7.71801C20.3332 6.5417 20.5655 5.03232 20.8108 3.19688C27.4725 3.40179 33.5485 3.36895 39.0382 3.11265C39.2013 3.63283 39.3491 4.42153 39.4697 5.5018C39.5681 6.3823 39.6465 7.43623 39.7043 8.66274C39.059 7.45816 38.6588 6.39928 38.4953 5.49627L38.4953 5.49627L38.4946 5.49249C38.4471 5.24169 38.303 5.01958 38.0933 4.8741L37.8083 5.28494L38.0933 4.8741C37.8835 4.72862 37.625 4.67143 37.3735 4.71487L37.3735 4.71486L37.3696 4.71557C37.1168 4.76131 36.8925 4.9056 36.746 5.1167C36.5996 5.32782 36.543 5.58845 36.5888 5.84125L36.5888 5.84129C36.9203 7.67346 37.9273 9.75594 39.609 12.1897C39.6089 12.1895 39.6088 12.1893 39.6087 12.1891L20.1129 7.71801ZM40.6871 12.5435L40.6791 12.5469L40.6568 12.5562L40.6562 12.5565C40.6248 12.5693 40.5294 12.6084 40.4066 12.6085L40.6873 12.5434C40.6878 12.5432 40.6877 12.5432 40.6871 12.5435ZM40.6871 12.5435C40.6847 12.5444 40.6744 12.5484 40.6595 12.5525L40.528 12.0701L40.4061 12.1339M40.6871 12.5435L40.4061 12.1339M40.4061 12.1339L40.4061 12.1085L40.4061 12.1339Z" fill="#BAC9E8" stroke="#3F3F70"/>
</svg>
